<svg id="Capa_1" enable-background="new 0 0 511.8 511.8" height="512" viewBox="0 0 511.8 511.8" width="512" xmlns="http://www.w3.org/2000/svg"><g><g><path d="m166.825 208.231c-3.587 2.071-8.174.842-10.245-2.745-2.071-3.587-.842-8.174 2.745-10.245 3.587-2.071 8.174-.842 10.245 2.745 2.072 3.587.843 8.174-2.745 10.245z"/><path d="m228.958 315.847c-3.587 2.071-8.174.842-10.245-2.745-2.071-3.587-.842-8.174 2.745-10.245 3.587-2.071 8.174-.842 10.245 2.745 2.071 3.587.842 8.174-2.745 10.245z"/></g><g><path d="m221.458 208.231c-3.587-2.071-4.816-6.658-2.745-10.245 2.071-3.587 6.658-4.816 10.245-2.745 3.587 2.071 4.816 6.658 2.745 10.245-2.071 3.587-6.658 4.816-10.245 2.745z"/><path d="m159.325 315.847c-3.587-2.071-4.816-6.658-2.745-10.245 2.071-3.587 6.658-4.816 10.245-2.745 3.587 2.071 4.816 6.658 2.745 10.245-2.07 3.587-6.657 4.816-10.245 2.745z"/></g><g><path d="m139.509 255.544c0 4.142-3.358 7.5-7.5 7.5-4.142 0-7.5-3.358-7.5-7.5 0-4.142 3.358-7.5 7.5-7.5 4.142 0 7.5 3.358 7.5 7.5z"/><path d="m263.774 255.544c0 4.142-3.358 7.5-7.5 7.5-4.142 0-7.5-3.358-7.5-7.5 0-4.142 3.358-7.5 7.5-7.5 4.142 0 7.5 3.358 7.5 7.5z"/></g><g><path d="m193.908 92.728c-25.545 0-46.327 20.783-46.327 46.328s20.782 46.328 46.327 46.328c25.546 0 46.328-20.783 46.328-46.328s-20.782-46.328-46.328-46.328zm0 77.656c-17.273 0-31.327-14.054-31.327-31.328s14.054-31.328 31.327-31.328c17.274 0 31.328 14.054 31.328 31.328s-14.053 31.328-31.328 31.328z"/><path d="m193.908 418.257c25.546 0 46.328-20.783 46.328-46.328s-20.782-46.328-46.328-46.328c-25.545 0-46.327 20.783-46.327 46.328s20.782 46.328 46.327 46.328zm0-77.655c17.274 0 31.328 14.054 31.328 31.328s-14.054 31.328-31.328 31.328c-17.273 0-31.327-14.054-31.327-31.328s14.054-31.328 31.327-31.328z"/><path d="m317.91 237.396c22.218-12.606 29.729-41.163 16.957-63.285-12.774-22.124-41.164-29.729-63.285-16.957-22.123 12.772-29.422 40.987-16.957 63.285 12.278 21.963 40.106 30.108 63.285 16.957zm-38.828-67.252c14.25-8.228 34.561-2.794 42.795 11.467 8.637 14.96 3.492 34.158-11.467 42.795-14.962 8.638-34.158 3.493-42.795-11.467s-3.493-34.158 11.467-42.795z"/><path d="m108.742 340.839c-8.167 4.711-17.912 5.504-26.738 2.178-3.876-1.461-8.202.498-9.663 4.374-1.46 3.876.498 8.202 4.374 9.663 13.418 4.874 26.593 3.8 39.524-3.223 21.891-12.637 29.591-41.396 16.955-63.285-12.77-22.122-41.161-29.727-63.284-16.957-19.374 11.181-27.994 34.574-20.496 55.623 1.39 3.902 5.683 5.939 9.582 4.548 3.902-1.39 5.938-5.68 4.549-9.582-5.067-14.225.763-30.037 13.864-37.598 14.96-8.636 34.158-3.495 42.795 11.464 8.544 14.8 3.339 34.249-11.462 42.795z"/><path d="m69.907 237.396c7.278 4.202 15.23 6.197 23.085 6.197 16.022 0 31.629-8.31 40.2-23.155 12.772-22.123 5.165-50.512-16.957-63.285-10.717-6.187-23.202-7.831-35.154-4.628-11.953 3.203-21.943 10.869-28.131 21.585-12.772 22.124-5.165 50.513 16.957 63.286zm-3.967-55.786c8.538-14.789 27.855-20.091 42.795-11.467 14.959 8.637 20.104 27.835 11.467 42.794-8.638 14.958-27.833 20.104-42.795 11.467-14.96-8.636-20.103-27.834-11.467-42.794z"/><path d="m271.582 353.832c22.128 12.72 50.728 4.792 63.285-16.957 12.772-22.123 5.165-50.512-16.957-63.285-21.889-12.638-51.156-5.219-63.285 16.957-14.389 26.306 1.649 54.486 16.957 63.285zm-3.967-55.785c8.538-14.79 27.855-20.091 42.795-11.467 14.96 8.637 20.104 27.834 11.467 42.794-8.639 14.96-27.836 20.103-42.795 11.467-14.803-8.545-20.013-27.991-11.467-42.794z"/><path d="m193.908 294.112c21.267 0 38.567-17.301 38.567-38.567s-17.301-38.567-38.567-38.567-38.567 17.301-38.567 38.567 17.301 38.567 38.567 38.567zm0-62.134c12.995 0 23.567 10.572 23.567 23.567s-10.572 23.567-23.567 23.567-23.567-10.572-23.567-23.567 10.572-23.567 23.567-23.567z"/><path d="m511.8 317.665c0-4.142-3.357-7.5-7.5-7.5h-124.345c33.901-115.282-49.309-237.389-169.067-247.782-4.12-.354-7.762 2.697-8.12 6.824s2.696 7.762 6.823 8.12c91.519 7.942 163.209 86.224 163.209 178.218 0 98.646-80.254 178.9-178.9 178.9s-178.9-80.254-178.9-178.9c0-91.994 71.689-170.276 163.208-178.218 4.127-.358 7.182-3.994 6.823-8.12-.357-4.127-3.994-7.179-8.12-6.824-98.815 8.576-176.911 93.984-176.911 193.162 0 106.917 86.983 193.9 193.899 193.9.961 0 231.93-.03 231.93-.03 4.143 0 7.5-3.358 7.5-7.5s-3.357-7.5-7.5-7.5h-7.218v-16.158h47.124v16.158h-7.216c-4.143 0-7.5 3.358-7.5 7.5s3.357 7.5 7.5 7.5h45.78c4.143 0 7.5-3.358 7.5-7.5v-124.25zm-62.127 85.592v-47.017h47.127v47.018h-47.127zm-62.124 0v-47.017h47.124v47.018h-47.124zm31.062-62.017v-16.075h47.124v16.075zm78.189 0h-16.064v-16.075h16.064zm-93.189-16.075v16.075h-35.81c2.588-5.23 4.947-10.592 7.064-16.075zm-44.064 31.075h13.002v47.018h-53.189c15.759-13.406 29.361-29.275 40.187-47.018zm-60.306 62.017h42.362v16.158h-72.868c10.688-4.488 20.889-9.91 30.506-16.158zm104.37 16.158h-47.008v-16.158h47.008zm77.124 0v-16.158h16.065v16.158z"/></g></g></svg>